<svg width="64" height="37" viewBox="0 0 64 37" fill="none" xmlns="http://www.w3.org/2000/svg">
<path d="M14.1 12.9C14.4 13.3 14.7 13.7 14.6 14.3C14.6 14.7 14 15.3 14.4 15.5L15.9 13.7C15.5 13.6 12.4 9.9 12.4 9.5L10.3 10.6C10.4 11 11.1 10.6 11.5 10.6C12 10.6 12.4 11 12.8 11.3C11.7 12.2 8.99999 14.6 8.69999 14.6C8.59999 14.6 7.99999 14.2 7.99999 14.6C7.99999 14.8 8.59999 15.3 8.69999 15.4L10.1 17.1C10.5 16.9 9.99999 16.6 10.2 16.3C10.3 16.1 13.4 13.6 14.1 12.9ZM10.7 8.4C11 8.3 11.1 8.7 11.3 8.4L9.69999 6.5C9.49999 6.2 9.19999 5.9 9.19999 6.5C9.29999 6.9 5.19999 10.2 4.99999 10.3C4.69999 10.4 4.49999 10 4.29999 10.4C4.79999 11 5.19999 11.5 5.69999 12.1C5.89999 12.3 5.99999 12.5 6.19999 12.7C6.39999 12.9 6.29999 12.3 6.29999 12.3C6.19999 12 6.59999 11.7 6.89999 11.5C7.89999 10.5 10.4 8.4 10.7 8.4ZM4.99999 7.8C3.89999 8.1 2.59999 7.7 2.29999 6.5C1.89999 5.3 2.69999 4.1 3.59999 3.4C4.49999 2.7 5.89999 2.8 6.39999 3.9C6.59999 4.4 6.49999 5 6.29999 5.5C6.19999 5.8 5.89999 6.1 6.29999 6.3C6.89999 5.6 7.39999 4.9 7.99999 4.2C7.29999 3.8 6.99999 3.1 6.49999 2.5C5.89999 1.8 5.19999 1.1 4.19999 1C2.29999 0.7 0.599993 2.7 0.399993 4.4C0.299993 5.3 0.599992 6.2 1.19999 7C1.69999 7.6 2.39999 8.1 2.79999 8.8C2.99999 8.9 4.59999 8.1 4.89999 8C5.09999 8 4.99999 7.9 4.99999 7.8C4.49999 8 4.99999 7.8 4.99999 7.8ZM30.5 31.4C29.8 30.9 27.9 28.4 27.5 27.9L27.3 27.6L27.1 27.7C27 27.8 27.2 28.1 27.1 28.3C26.6 29.1 23.4 31.5 23.2 31.7C22.8 31.9 22.4 31.6 22.2 31.9C22.7 32.5 24 34.2 24.2 34.2C24.5 34.2 24.3 33.7 24.3 33.6C24.4 33.4 26 32 26.6 31.5C26.8 31.3 27 31.8 27.2 32C27.4 32.3 27.5 32.7 27.4 33C27.3 33.2 26.9 33.6 27.2 33.8C27.6 33.3 28.7 32 28.9 31.8C29.1 31.6 28.5 31.8 28.6 31.7C28.4 31.8 28.1 31.9 27.9 31.7C27.8 31.7 27.2 31 27.3 30.9C27.6 30.7 27.9 30.3 28.3 30.2C28.9 30.1 29.3 31.2 29.4 31.6C29.5 32 29.5 32.4 29.3 32.7C29.2 33 29 33.2 29.3 33.3L30.7 31.4C30.7 31.5 30.6 31.5 30.5 31.4C30.4 31.4 30.6 31.5 30.5 31.4ZM21.3 22.5C20.6 22.5 19.9 22.8 19.3 23.3C17.9 24.5 17.7 26.6 18.8 28.1C20.1 29.8 22.2 30 23.9 28.8C25.3 27.6 25.5 25.5 24.4 24C23.6 23 22.4 22.5 21.3 22.5ZM22.5 23.9C23.4 23.8 24 24.7 23.6 25.7C23.2 26.7 22.2 27.7 21.2 28.1C20 28.6 19.2 27.6 19.7 26.4C20.1 25.4 21.1 24.4 22.1 24C22.2 24 22.3 23.9 22.5 23.9ZM19.7 19.3C20 19.3 20.3 19.7 20.5 19.3L19.1 17.6C18.7 17.8 19.1 18 19 18.2C18.8 18.5 17.3 18.7 16.9 18.8C17 18.4 17.5 17.1 17.7 17C18.1 16.7 18.3 17.3 18.5 16.9L16.7 14.8C16.5 14.6 16.3 14.1 16.1 14.4C16.1 14.4 16.1 15.4 16 15.5C15.9 15.7 15.4 17.9 14.8 18.4C14.5 18.7 13.3 19.7 13 19.8C12.7 19.9 12.5 19.4 12.2 19.8L13.8 21.7C13.9 21.8 14.2 22.3 14.3 22.3C14.6 22.4 14.3 21.7 14.4 21.6C14.5 21.3 16 19.8 16.7 19.7C17.6 19.5 18.7 19.2 19.7 19.3C19.9 19.3 19.5 19.3 19.7 19.3ZM43.9 26C44 26.4 44.1 26.9 44 27.3C43.9 27.9 43.4 29.2 42.6 28.8C41.8 28.4 41.2 27.7 40.5 27.1C41 26.5 41.5 26 42.4 26.3C42.6 26.4 42.8 26.3 42.6 26.1C42.3 25.9 40.6 24.8 40.5 24.9C40.3 25.1 40.8 25.5 40.6 25.9C40.5 26.2 40.2 26.4 40 26.7C39.5 26.3 38.8 25.9 39.3 25.2C39.7 24.8 40.1 24.4 40.7 24.3C41.1 24.2 41.9 24.6 42 24.2C41.3 23.9 40.6 23.5 39.9 23.2C40 23.7 37.7 26.1 37.2 26.7C37.1 26.8 36.8 27.1 36.8 27.2C36.8 27.5 37.2 27.3 37.2 27.3C37.5 27.2 41.6 30.6 41.7 30.9C41.8 31.1 41.6 31.3 41.7 31.4C41.7 31.4 41.8 31.5 41.9 31.5C42.2 31.2 44.8 27.6 45.4 27.5C44.9 26.7 44.4 25.9 43.9 25.1C43.5 25.3 43.8 25.8 43.9 26ZM39.9 30.4C38.6 29.5 36.3 31.2 35.9 31.4C35.2 31.7 34.7 31 35.1 30.4C35.4 29.9 36 29.6 36.6 29.6C36.8 29.6 37.5 29.7 37.5 29.6C37.6 29.5 37.6 29.5 37.5 29.4C36.9 29 36.4 28.6 35.8 28.3C35.7 29 34.9 29.4 34.5 29.9C34 30.5 33.5 31.2 33.5 31.9C33.5 32.6 33.9 33.3 34.6 33.6C35.3 34 36.1 33.7 36.8 33.3C37.2 33 37.6 32.7 38 32.5C38.6 32.2 39.5 32.5 39.3 33.3C39.1 34 38.4 34.6 37.7 34.8C37.3 34.9 36.9 34.9 36.5 34.7C36.2 34.6 35.9 34.2 35.7 34.6L38 36.2C38.1 35.7 38.3 35.5 38.7 35.2C39.2 34.8 39.6 34.3 40 33.8C40.8 32.9 41.1 31.3 39.9 30.4ZM57.5 2.3C57.5 2.4 57.5 2.4 57.5 2.3L56.6 3.3L55.8 4.3C55.6 4.5 55.5 4.6 55.8 4.8C56.3 4.5 59.3 9.6 59.1 10.3C58.6 10.5 54.6 7 54.5 6.8C54.5 6.7 54.7 6.1 54.4 6.2C54.3 6.2 53.9 6.8 53.8 6.9L53.2 7.6C53.4 7.9 53.5 7.6 53.8 7.6C54 7.7 55 8.5 55.3 8.7C54.8 8.7 53.6 8.8 53.4 8.8C52.8 8.9 53.1 8.4 52.7 8.2L51.2 10L50.3 11C50.3 11 50.3 11 50.3 11.1C50.5 11.3 50.4 11.2 50.7 11.1C51 11 55 14.3 55.1 14.5C55.3 14.8 55 15.1 55.4 15.3L56.6 13.9C56.7 13.8 56.7 13.8 56.6 13.8C56.3 13.6 56.3 13.9 55.9 13.9C55.6 13.8 53 11.7 52.1 10.9L57.4 10.7C57.6 10.7 58.1 11.3 58.1 11.5C58 11.7 57.8 11.9 58.1 12C58.4 11.6 58.7 11.3 59 10.9L59.1 10.7C59.2 10.7 59.2 10.6 59.2 10.5L59.3 10.4C59.6 10.1 60.5 9.1 60.4 9C60.1 8.7 60 9.3 59.6 9C59.4 8.8 58.8 7.8 58.7 7.6C58.5 7.3 59.1 7 59.3 6.9C59.8 6.6 61.4 6.1 61.6 7.1C61.6 7.3 61.4 7.5 61.5 7.6C61.5 7.6 61.6 7.8 61.7 7.7L63.8 5.1C63.7 5 63.7 5 63.6 4.9C63.1 5.4 58.1 3.4 57.8 3.1C57.7 2.9 57.7 2.3 57.5 2.3ZM57.3 4.9C58.1 5.2 58.8 5.5 59.6 5.9C59.4 6 59.2 6.1 59 6.2C58.8 6.3 58.6 6.5 58.4 6.7L57.3 4.9ZM50.7 12.6C49.6 12.5 48.5 13 47.7 13.9C46.5 15.4 46.6 17.6 48.1 18.8C49.6 20 51.8 19.7 53 18.3C54.2 16.8 54.1 14.6 52.6 13.4C52.1 13 51.4 12.7 50.7 12.6ZM49.3 14.2C49.9 14.2 50.6 14.6 51 14.9C51.8 15.4 53.2 16.6 52.5 17.6C52.5 17.5 52.6 17.5 52.4 17.7C51.6 18.5 50.2 17.8 49.5 17.2C48.8 16.7 47.5 15.5 48.3 14.5C48.6 14.3 48.9 14.2 49.3 14.2ZM46.2 18.5C45 18.4 43.8 19 42.9 20.1C42.3 20.9 41.6 21.6 41 22.4C41.2 22.7 41.5 22.3 41.8 22.5C42.1 22.7 45.9 25.8 45.9 26C46 26.3 45.7 26.4 46 26.6C46.1 26.7 48.9 23.2 49.2 22.6C49.6 21.5 49.3 20.2 48.4 19.4C48.5 19.5 48.6 19.5 48.4 19.4C47.6 18.8 46.9 18.5 46.2 18.5ZM45.1 20.1C45.2 20.1 45.3 20.1 45.4 20.1C46.8 20.5 48.8 22.2 47.5 23.7C47.3 23.9 47.5 23.7 47.1 24.1C46.9 24.3 42.9 21.1 43.1 20.9C43.5 20.4 44.4 20 45.1 20.1Z" fill="white"/>
</svg>
