<svg width="66" height="55" viewBox="0 0 66 55" fill="none" xmlns="http://www.w3.org/2000/svg">
<path d="M61.6 3.6V1.2H63.7L61.6 3.6ZM12.4 13C12.5 13.1 14.8 10.6 18.5 8.1C21.9 5.8 27.1 3.2 32.9 3.2C38.7 3.2 44 5.9 47.4 8.2C51.1 10.6 53.4 13 53.5 13.1L51 16.1C46.5 16.7 43.3 20 38.9 19.3C36.7 18.9 36.6 17.7 36 16.4C35.5 15.4 34.7 15.6 33.7 15.2C32.8 14.8 32.2 14.1 30.3 14.5C28.7 14.9 28.5 17.4 26.4 17.3C25.3 17.2 25.2 15.7 23.6 13.7C19.5 8.8 15.7 9.5 13.1 14L32.7 37.3L12.4 13ZM4 1.2V3.1L2.4 1.2H4ZM57.9 1.2H61.1V4.2L57.9 8V1.2ZM53.8 12.6V1.2H57.3V8.6L53.8 12.6C53.8 12.6 53.9 12.6 53.8 12.6ZM53.3 2.2V12.1C52.2 11 51 10 49.7 9.1L53.3 2.2ZM49.2 1.9V8.7C48.7 8.4 48.3 8 47.7 7.7C47 7.3 46.3 6.8 45.5 6.4L49.2 1.9ZM44.8 1.7V6C43.8 5.5 42.7 5 41.7 4.5L44.8 1.7ZM45.4 1.2H49.1L45.4 5.8V1.2ZM49.7 1.2H53.3L49.7 8.3V1.2ZM40.9 1.2H44.8L41.3 4.3C41.2 4.3 41.1 4.2 41 4.2L40.9 1.2ZM40.4 1.6V4C39.4 3.6 38.4 3.3 37.3 3.1L40.4 1.6ZM36.2 1.6V2.9C35.5 2.8 34.8 2.7 34 2.6L36.2 1.6ZM29.4 1.6L31.6 2.6C30.8 2.6 30.1 2.7 29.4 2.9V1.6ZM25.3 1.6L28.4 3.1C27.3 3.3 26.3 3.6 25.3 4V1.6ZM28.9 2.8L25.6 1.2H28.9V2.8ZM32.4 2.4L29.6 1.1H32.4V2.4ZM33.1 1.2H36L33.1 2.5V1.2ZM36.8 1.2H40L36.8 2.8V1.2ZM24.4 4.3L20.9 1.2H24.8V4.2L24.4 4.3ZM20.8 1.7L23.9 4.4C22.8 4.8 21.8 5.3 20.8 5.9V1.7ZM16.5 1.9L20.1 6.4C18.8 7.1 17.6 7.9 16.5 8.8V1.9ZM12.3 2.2L15.9 9.2C14.6 10.2 13.4 11.2 12.3 12.4V2.2ZM16 8.2L12.4 1.1H16V8.2ZM20.3 5.7L16.6 1.1H20.3V5.7ZM7.7 7.5L4.5 3.7V1.2H7.7V7.5ZM8.3 1.2H11.8V12.4L8.3 8.2V1.2ZM33.1 0H0V14.6L32.8 54.5L33 54.2L66 15V0H33.1Z" fill="#491213"/>
</svg>
