<svg width="30" height="26" viewBox="0 0 30 26" fill="none" xmlns="http://www.w3.org/2000/svg">
<path d="M23.2 19.6C19.8 17.6 20.6 16.1 23.4 14.7C24.9 14 28.2 11.3 29.5 12.2L23.2 19.6ZM20.9 22.1C18.9 22 16.6 21.7 14.6 22.2C15.8 22.5 18.8 23.4 16 24.1C17 25.5 18.6 25.4 19.6 24.2C19.2 24 18.9 23.7 18.6 23.5C19.7 23.2 20.7 22.6 20.9 22.1ZM22.1 20.5C21.2 19.7 20.2 19.7 19.4 20.5C18.2 18.4 14 19.1 12 18.8C13.1 21.4 21.6 21.9 22.1 20.5ZM15.3 18.3C13.7 17.8 8.5 17.9 11.9 16.5C13 16.1 18.6 16.6 15.3 18.3ZM17.3 15.3C16.8 14.2 17.7 12.9 19 13.9C20.2 14.7 18.4 15.9 17.3 15.3ZM14.4 15.4C12.1 16.1 9.09999 14.6 12.8 13.9C15.1 13.4 17.5 14.4 14.4 15.4C14.3 15.4 14.5 15.4 14.4 15.4ZM11.8 9.2C11.3 10.8 10.3 11.1 10.4 9.2C10.5 6.9 12 7.5 13.6 6.6C14.9 5.9 15.6 3.2 17.9 4.8C18.9 5.5 20.1 4.9 20.4 6C20.4 5.9 17.5 12.7 19.1 12.7C15.9 12.7 17.3 8.9 18.5 6.3C17.3 6.9 15.4 10.6 17 11.3C16.2 12.4 13.6 13.9 12.3 12.8C11.2 11.8 11.8 10.5 11.8 9.2ZM7.79999 12C2.19999 12 6 3.4 7.9 3.9C10.1 4.6 9.79999 12.1 7.79999 12ZM1.59999 3.8C-1.00001 3.7 0.0999956 1.2 1.9 0.7C3.6 0.2 7.09999 1.8 8.29999 2.9C6.49999 3.5 4.2 3.4 2.19999 3.5C1.99999 1.5 1.49999 2.2 1.59999 3.8Z" fill="#DC6243"/>
</svg>
